<svg width="15" height="35" viewBox="0 0 15 35" fill="none" xmlns="http://www.w3.org/2000/svg">
<path d="M2.62891 25.9688H0.226562V24.5625H2.62891C3.31901 24.5625 3.89844 24.3021 4.36719 23.7812C4.83594 23.2604 5.07031 22.5703 5.07031 21.7109V0.65625H6.47656V21.7109C6.47656 22.9479 6.10547 23.9701 5.36328 24.7773C4.62109 25.5716 3.70964 25.9688 2.62891 25.9688ZM2.62891 28.7812H0.226562V27.375H2.62891C4.08724 27.375 5.32422 26.8216 6.33984 25.7148C7.36849 24.6081 7.88281 23.2734 7.88281 21.7109V0.65625H9.28906V21.7109C9.28906 23.6641 8.63802 25.3307 7.33594 26.7109C6.04688 28.0911 4.47786 28.7812 2.62891 28.7812ZM2.62891 31.5938H0.226562V30.1875H2.62891C4.86849 30.1875 6.76953 29.3607 8.33203 27.707C9.90755 26.0534 10.6953 24.0547 10.6953 21.7109V0.65625H12.1016V21.7109C12.1016 23.4948 11.6784 25.1484 10.832 26.6719C9.9987 28.1823 8.85286 29.3802 7.39453 30.2656C5.9362 31.151 4.34766 31.5938 2.62891 31.5938ZM2.62891 34.4062H0.226562V33H2.62891C4.11328 33 5.52604 32.7005 6.86719 32.1016C8.20833 31.5026 9.36068 30.7018 10.3242 29.6992C11.3008 28.6836 12.0755 27.4792 12.6484 26.0859C13.2214 24.6927 13.5078 23.2344 13.5078 21.7109V0.65625H14.9141V21.7109C14.9141 23.4297 14.5885 25.0703 13.9375 26.6328C13.2995 28.1953 12.4271 29.5495 11.3203 30.6953C10.2266 31.8281 8.91797 32.7266 7.39453 33.3906C5.88411 34.0677 4.29557 34.4062 2.62891 34.4062Z" fill="url(#paint0_linear_5_223)"/>
<defs>
<linearGradient id="paint0_linear_5_223" x1="8" y1="-13" x2="8" y2="35" gradientUnits="userSpaceOnUse">
<stop stop-color="#AC8AE5" stop-opacity="0.03"/>
<stop offset="0.489583" stop-color="#6C63FF" stop-opacity="0.61"/>
<stop offset="0.895833" stop-color="#AA83FF" stop-opacity="0.95"/>
</linearGradient>
</defs>
</svg>
